<svg width="461" height="331" viewBox="0 0 461 331" fill="none" xmlns="http://www.w3.org/2000/svg">
<path fill-rule="evenodd" clip-rule="evenodd" d="M461 108.514V160.39L327.952 138.276C329.48 145.792 330.287 153.571 330.287 161.533C330.287 172.653 328.69 183.403 325.77 193.593L461 170.443V222.482L230.5 331L0 222.486V170.614L133.048 192.724C131.52 185.208 130.713 177.43 130.713 169.467C130.713 158.347 132.31 147.597 135.23 137.407L0 160.557V108.518L230.5 0L461 108.514ZM230.309 116.746C203.493 116.746 181.757 138.46 181.757 165.245C181.757 192.029 203.493 213.743 230.309 213.744C230.372 213.744 230.437 213.74 230.5 213.74C257.229 213.638 278.865 191.966 278.865 165.245C278.865 138.522 257.23 116.847 230.5 116.746C230.437 116.745 230.372 116.746 230.309 116.746Z" fill="#FF5F02"/>
</svg>
