<svg width="461" height="332" viewBox="0 0 461 332" fill="none" xmlns="http://www.w3.org/2000/svg">
<path d="M460 109.276V159.397L328.116 137.452L326.683 137.214L326.972 138.638C328.486 146.098 329.287 153.819 329.287 161.723L329.282 162.757C329.187 173.426 327.614 183.746 324.809 193.545L324.37 195.075L325.938 194.806L460 171.829V222.108L230.499 330.284L1 222.112V171.994L132.884 193.938L134.317 194.176L134.028 192.752C132.514 185.292 131.713 177.57 131.713 169.666L131.718 168.633C131.813 157.963 133.386 147.643 136.191 137.844L136.63 136.314L135.062 136.583L1 159.56V109.28L230.5 1.10449L460 109.276ZM229.669 115.887C202.596 116.23 180.757 138.285 180.757 165.439L180.761 166.08C181.101 192.94 202.809 214.65 229.669 214.991L230.31 214.995C230.358 214.995 230.403 214.994 230.434 214.993L230.504 214.991C257.784 214.887 279.865 192.744 279.865 165.439L279.861 164.8C279.52 137.79 257.571 115.986 230.504 115.883H230.31L229.669 115.887Z" stroke="white" stroke-width="2"/>
</svg>
