<?xml version="1.0" encoding="UTF-8"?>
<svg id="Layer_2" data-name="Layer 2" xmlns="http://www.w3.org/2000/svg" viewBox="0 0 208.45 71.01">
  <g id="Layer_1-2" data-name="Layer 1">
    <g>
      <path d="M65.49,71.01V0h19.95c16.07,1.27,24.82,20.38,14.97,33.27,2.31,1.81,4.36,3.97,5.8,6.55,7.51,13.48-1.39,29.84-16.57,31.18h-24.14ZM78.87,28.13h5.92c.41,0,1.72-.46,2.15-.65,5.21-2.38,5.67-9.87.76-12.81-.55-.33-2.2-1.04-2.78-1.04h-6.05v14.51ZM78.87,57.39h9.75c4.37,0,7.38-5.14,6.37-9.16-.57-2.26-3.42-5.34-5.86-5.34h-10.26v14.51Z"/>
      <path d="M113.78,71.01V0h19.95c16.08,1.32,24.75,20.32,14.98,33.27,3.64,2.82,6.51,6.75,7.72,11.23,3.47,12.78-5.41,25.33-18.5,26.49h-24.14ZM127.16,28.13h5.92c.91,0,2.83-.94,3.56-1.53,3.7-2.97,3.7-8.48,0-11.45-.67-.54-2.62-1.53-3.44-1.53h-6.05v14.51ZM137.42,42.89h-10.26v14.51h9.75c2.49,0,5.28-2.46,6.11-4.71,1.53-4.13-1.16-9.24-5.6-9.8Z"/>
      <polygon points="0 71.01 21.97 0 40.63 .02 62.43 71.01 41.92 71.01 31.28 13.5 20.51 71.01 0 71.01"/>
      <polygon points="170.99 0 179.78 36.53 188.57 0 208.45 0 187.68 48.17 187.68 71.01 172.01 71.01 172.01 48.04 151.37 0 170.99 0"/>
    </g>
  </g>
</svg>