<svg width="35" height="25" viewBox="0 0 35 25" fill="none" xmlns="http://www.w3.org/2000/svg">
<path d="M17.3887 8.81787C17.3839 8.81785 17.3788 8.81787 17.374 8.81787C15.3512 8.81813 13.7119 10.4581 13.7119 12.481C13.712 14.5038 15.3513 16.1438 17.374 16.144C17.3788 16.144 17.3839 16.1431 17.3887 16.1431V24.9995L0 16.8042V12.8862L10.0371 14.5562C9.92184 13.9885 9.86035 13.4007 9.86035 12.7993C9.86037 11.9596 9.98091 11.1479 10.2012 10.3784L0 12.1265V8.1958L17.3887 0.000488281V8.81787Z" fill="black"/>
<path d="M34.7773 8.19629V12.1133L24.7402 10.4434C24.8555 11.011 24.917 11.5988 24.917 12.2002C24.917 13.0399 24.7964 13.8516 24.5762 14.6211L34.7773 12.873V16.8037L17.3887 25V16.1426C19.4053 16.1351 21.0381 14.4989 21.0381 12.4805C21.0379 10.4622 19.4052 8.82486 17.3887 8.81738V0L34.7773 8.19629Z" fill="black"/>
</svg>
